<svg width="591" height="454" viewBox="0 0 591 454" fill="none" xmlns="http://www.w3.org/2000/svg">
<path d="M150.73 174.94V167.94C150.73 118.46 150.703 68.9767 150.65 19.49C150.65 15.61 151.74 13.49 155.3 11.86C162.92 8.32004 170.3 4.31004 178.7 0.0400391V7.90004C178.813 101.533 178.917 195.163 179.01 288.79C179.01 297.79 179.12 306.79 178.6 315.79C178.42 318.98 177.33 322.79 175.28 325.11C154.54 348.6 128.44 360.95 96.98 360.25C73.8116 359.684 51.5692 351.041 34.0982 335.814C16.6271 320.587 5.02584 299.734 1.29999 276.86C-6.87001 225.86 24.17 177.71 73.9 164.43C97.79 158.06 121.05 160.43 143.34 171.38L150.73 174.94ZM151.26 260.78C151.26 245.78 151.39 230.78 151.13 215.78C151.049 213.216 150.023 210.773 148.25 208.92C128.34 190.84 105.07 184.92 79.33 192.52C52.05 200.52 35.15 219.52 29.65 247.18C24.52 273.05 32.51 295.63 51.88 313.7C78.29 338.35 123.88 337.58 148.52 312.17C150.105 310.396 151.028 308.127 151.13 305.75C151.36 290.77 151.25 275.78 151.26 260.78Z" fill="#111A5D"/>
<path d="M412.29 0.0800781C421.69 4.92008 430.29 9.18008 438.65 13.8201C439.72 14.4101 440.13 16.9801 440.14 18.6301C440.267 56.4634 440.337 94.2901 440.35 132.11C440.35 144.94 440.3 157.76 440.3 170.59C440.3 171.71 440.47 172.82 440.59 174.41C445.16 172.35 449.31 170.35 453.59 168.6C509.64 145.38 574.59 177.6 588.49 239.47C598.74 285.19 575.82 330.37 533.34 350.91C496.34 368.79 449.73 360.33 420.77 331.14C414.29 324.61 411.64 318.06 411.68 308.84C412.14 209.84 412.18 110.84 412.33 11.9001C412.3 8.43008 412.29 5.00008 412.29 0.0800781ZM439.37 260.81H439.32C439.32 275.63 439.19 290.46 439.46 305.28C439.46 307.79 440.6 311.02 442.38 312.63C462.51 330.89 486.22 336.57 511.93 328.7C552.82 316.17 572.47 274 557.21 234C539.74 188.24 478.37 174.35 442.9 208.07C441.71 209.073 440.766 210.336 440.14 211.761C439.514 213.186 439.223 214.735 439.29 216.29C439.48 231.16 439.37 246 439.37 260.81Z" fill="#111A5D"/>
<path d="M200 222.68C208.95 188.68 247.42 152.16 298.51 154.58C349.99 157.02 391.42 199.29 393.15 250.58C394.85 301.17 357.65 346.58 305.7 352.76C251.7 359.17 208.42 322.51 197.7 279.38L331.19 243.84C330.32 253.38 329.71 261.97 328.57 270.5C328.36 271.99 326.12 273.96 324.47 274.41C305.56 279.62 286.57 284.55 267.62 289.61C258.62 292.01 249.72 294.52 239.8 297.25C241.04 299.16 241.8 300.87 243.03 302.15C274.44 335.36 329.37 329.7 353.08 290.68C366.94 267.88 367.62 243.98 355.08 220.79C342 196.62 320.57 184.18 293 184.11C271.74 184.06 254.08 193.03 240 209.04C238.074 211.197 235.605 212.8 232.85 213.68C222.18 216.86 211.4 219.6 200 222.68Z" fill="#111A5D"/>
<path d="M31.6136 444H22.196V414.909H31.9119C34.7623 414.909 37.2102 415.491 39.2557 416.656C41.3011 417.812 42.8684 419.473 43.9574 421.642C45.0559 423.801 45.6051 426.391 45.6051 429.412C45.6051 432.442 45.0511 435.046 43.9432 437.224C42.8447 439.402 41.2538 441.079 39.1705 442.253C37.0871 443.418 34.5682 444 31.6136 444ZM26.5852 440.165H31.3722C33.5881 440.165 35.4299 439.748 36.8977 438.915C38.3655 438.072 39.464 436.855 40.1932 435.264C40.9223 433.664 41.2869 431.713 41.2869 429.412C41.2869 427.13 40.9223 425.193 40.1932 423.602C39.4735 422.011 38.3987 420.804 36.9688 419.98C35.5388 419.156 33.7633 418.744 31.642 418.744H26.5852V440.165ZM53.6753 444H49.0162L59.4849 414.909H64.556L75.0247 444H70.3656L62.1412 420.193H61.9139L53.6753 444ZM54.4565 432.608H69.5702V436.301H54.4565V432.608ZM96.4578 422.551C96.3063 421.206 95.6813 420.165 94.5828 419.426C93.4843 418.678 92.1018 418.304 90.4351 418.304C89.2419 418.304 88.2097 418.493 87.3385 418.872C86.4673 419.241 85.7902 419.753 85.3072 420.406C84.8338 421.05 84.597 421.784 84.597 422.608C84.597 423.299 84.758 423.896 85.08 424.398C85.4114 424.9 85.8423 425.321 86.3726 425.662C86.9124 425.993 87.49 426.273 88.1055 426.5C88.7211 426.718 89.3129 426.898 89.8811 427.04L92.722 427.778C93.65 428.006 94.6018 428.313 95.5771 428.702C96.5525 429.09 97.4569 429.601 98.2902 430.236C99.1235 430.87 99.7959 431.656 100.307 432.594C100.828 433.531 101.088 434.653 101.088 435.96C101.088 437.608 100.662 439.071 99.8101 440.349C98.9673 441.628 97.741 442.636 96.1311 443.375C94.5307 444.114 92.5942 444.483 90.3214 444.483C88.1434 444.483 86.2589 444.137 84.668 443.446C83.0771 442.755 81.8319 441.775 80.9322 440.506C80.0326 439.227 79.5355 437.712 79.4408 435.96H83.8442C83.9294 437.011 84.2703 437.887 84.8669 438.588C85.473 439.279 86.2447 439.795 87.1822 440.136C88.1292 440.468 89.1661 440.634 90.293 440.634C91.5336 440.634 92.6368 440.439 93.6027 440.051C94.5781 439.653 95.3451 439.104 95.9038 438.403C96.4625 437.693 96.7419 436.865 96.7419 435.918C96.7419 435.056 96.4957 434.35 96.0033 433.801C95.5203 433.252 94.8622 432.797 94.0288 432.438C93.205 432.078 92.2722 431.76 91.2305 431.486L87.793 430.548C85.4635 429.914 83.6169 428.981 82.2533 427.75C80.8991 426.519 80.222 424.89 80.222 422.864C80.222 421.187 80.6766 419.724 81.5857 418.474C82.4947 417.224 83.7258 416.254 85.2788 415.562C86.8319 414.862 88.5838 414.511 90.5345 414.511C92.5042 414.511 94.2419 414.857 95.7476 415.548C97.2627 416.24 98.4559 417.191 99.3271 418.403C100.198 419.606 100.653 420.989 100.691 422.551H96.4578ZM88.8442 443.886H91.6283L91.401 445.051C92.2249 445.184 92.9446 445.515 93.5601 446.045C94.1756 446.576 94.4834 447.376 94.4834 448.446C94.4929 449.724 93.9389 450.761 92.8214 451.557C91.7135 452.352 90.1084 452.75 88.0061 452.75L87.9209 450.378C88.9057 450.378 89.7012 450.236 90.3072 449.952C90.9228 449.668 91.2353 449.208 91.2447 448.574C91.2542 447.939 91.0175 447.494 90.5345 447.239C90.061 446.983 89.3035 446.803 88.2618 446.699L88.8442 443.886ZM112.323 414.909V444H107.934V414.909H112.323ZM143.795 414.909V444H139.761L124.974 422.665H124.704V444H120.315V414.909H124.377L139.178 436.273H139.448V414.909H143.795ZM151.798 414.909H157.124L166.386 437.523H166.727L175.988 414.909H181.315V444H177.138V422.949H176.869L168.289 443.957H164.823L156.244 422.935H155.974V444H151.798V414.909ZM191.753 444H187.094L197.563 414.909H202.634L213.103 444H208.444L200.219 420.193H199.992L191.753 444ZM192.535 432.608H207.648V436.301H192.535V432.608ZM218.151 444V441.074L233.449 418.688H218.023V414.909H238.819V417.835L223.52 440.222H238.946V444H218.151ZM269.373 444.398C267.034 444.398 264.989 443.877 263.237 442.835C261.494 441.794 260.135 440.293 259.16 438.332C258.194 436.363 257.711 433.991 257.711 431.216V428.489H278.663V432.21H262.455V432.821C262.465 434.45 262.744 435.828 263.293 436.955C263.852 438.081 264.643 438.938 265.666 439.526C266.698 440.103 267.915 440.392 269.316 440.392C271.011 440.392 272.432 439.994 273.578 439.199C274.723 438.394 275.59 437.277 276.177 435.847C276.764 434.407 277.058 432.755 277.058 430.889V428.134C277.058 426.647 276.878 425.312 276.518 424.128C276.168 422.944 275.632 421.94 274.913 421.116C274.193 420.293 273.275 419.663 272.157 419.227C271.04 418.792 269.719 418.574 268.194 418.574C267.446 418.574 266.669 418.626 265.864 418.73C265.069 418.825 264.278 418.976 263.492 419.185C262.706 419.384 261.949 419.634 261.22 419.938L260.239 416.259C260.628 416.022 261.125 415.799 261.731 415.591C262.346 415.383 263.028 415.198 263.776 415.037C264.525 414.866 265.306 414.739 266.12 414.653C266.944 414.559 267.758 414.511 268.563 414.511C271.319 414.511 273.686 415.07 275.666 416.188C277.654 417.305 279.179 418.882 280.239 420.918C281.31 422.954 281.845 425.359 281.845 428.134V430.889C281.845 433.474 281.333 435.79 280.311 437.835C279.288 439.871 277.844 441.476 275.978 442.651C274.113 443.815 271.911 444.398 269.373 444.398ZM289.251 414.909H294.577L303.839 437.523H304.18L313.441 414.909H318.768V444H314.592V422.949H314.322L305.742 443.957H302.276L293.697 422.935H293.427V444H289.251V414.909ZM326.749 444V414.909H331.138V440.222H344.32V444H326.749ZM354.869 444H350.21L360.679 414.909H365.75L376.218 444H371.559L363.335 420.193H363.108L354.869 444ZM355.65 432.608H370.764V436.301H355.65V432.608ZM382.019 444V414.909H386.409V428.801H386.764L398.965 414.909H404.491L392.758 428.006L404.534 444H399.25L389.846 431.003L386.409 434.952V444H382.019ZM422.368 444V414.909H433.021C435.086 414.909 436.795 415.25 438.149 415.932C439.503 416.604 440.517 417.518 441.189 418.673C441.861 419.819 442.197 421.112 442.197 422.551C442.197 423.763 441.975 424.786 441.53 425.619C441.085 426.443 440.488 427.106 439.74 427.608C439.001 428.1 438.187 428.46 437.297 428.688V428.972C438.263 429.019 439.205 429.331 440.124 429.909C441.052 430.477 441.819 431.287 442.425 432.338C443.031 433.389 443.334 434.668 443.334 436.173C443.334 437.66 442.983 438.995 442.283 440.179C441.591 441.353 440.521 442.286 439.072 442.977C437.624 443.659 435.772 444 433.518 444H422.368ZM426.757 440.236H433.092C435.195 440.236 436.7 439.829 437.609 439.014C438.518 438.2 438.973 437.182 438.973 435.96C438.973 435.042 438.741 434.199 438.277 433.432C437.813 432.665 437.15 432.054 436.288 431.599C435.436 431.145 434.423 430.918 433.249 430.918H426.757V440.236ZM426.757 427.494H432.638C433.623 427.494 434.508 427.305 435.294 426.926C436.089 426.547 436.719 426.017 437.183 425.335C437.657 424.644 437.893 423.83 437.893 422.892C437.893 421.689 437.472 420.681 436.629 419.866C435.786 419.052 434.494 418.645 432.751 418.645H426.757V427.494ZM452.597 444H447.938L458.407 414.909H463.478L473.947 444H469.288L461.063 420.193H460.836L452.597 444ZM453.378 432.608H468.492V436.301H453.378V432.608ZM478.995 444V441.074L494.293 418.688H478.867V414.909H499.662V417.835L484.364 440.222H499.79V444H478.995ZM509.352 444H504.693L515.161 414.909H520.233L530.701 444H526.042L517.818 420.193H517.59L509.352 444ZM510.133 432.608H525.247V436.301H510.133V432.608ZM536.502 444V414.909H546.872C549.125 414.909 550.996 415.297 552.482 416.074C553.979 416.85 555.096 417.925 555.835 419.298C556.573 420.662 556.943 422.239 556.943 424.028C556.943 425.809 556.569 427.376 555.82 428.73C555.082 430.075 553.964 431.121 552.468 431.869C550.981 432.617 549.111 432.991 546.857 432.991H539.002V429.213H546.46C547.88 429.213 549.035 429.009 549.926 428.602C550.825 428.195 551.483 427.603 551.9 426.827C552.317 426.05 552.525 425.117 552.525 424.028C552.525 422.93 552.312 421.978 551.886 421.173C551.469 420.368 550.811 419.753 549.911 419.327C549.021 418.891 547.852 418.673 546.403 418.673H540.892V444H536.502ZM550.863 430.875L558.051 444H553.051L546.005 430.875H550.863ZM568.273 414.909V444H563.884V414.909H568.273Z" fill="#111A5D"/>
</svg>
