<svg width="24" height="24" viewBox="0 0 24 24" fill="none" xmlns="http://www.w3.org/2000/svg">
<path d="M22.875 6.75L16.875 0.75V4.5H1.125V9H16.875V12.75L22.875 6.75ZM3 23.25C1.7595 23.25 0.75 22.182 0.75 20.8695H1.875C1.875 21.4819 2.37975 21.9814 3 21.9814C3.62025 21.9814 4.125 21.4819 4.125 20.8695C4.125 20.2571 3.62025 19.7591 3 19.7591C1.7595 19.7591 0.75 18.6919 0.75 17.3794C0.75 16.068 1.7595 15 3 15C4.2405 15 5.25 16.068 5.25 17.3798H4.125C4.125 16.7674 3.62025 16.2686 3 16.2686C2.37975 16.2686 1.875 16.7674 1.875 17.3798C1.875 17.9921 2.37975 18.4909 3 18.4909C4.2405 18.4909 5.25 19.5581 5.25 20.8699C5.25 22.182 4.2405 23.25 3 23.25ZM9 23.25C7.7595 23.25 6.75 22.182 6.75 20.8695V17.3794C6.75 16.068 7.7595 15 9 15C10.2405 15 11.25 16.068 11.25 17.3798V20.8699C11.25 22.182 10.2405 23.25 9 23.25ZM9 16.2686C8.37975 16.2686 7.875 16.7674 7.875 17.3798V20.8699C7.875 21.4822 8.37975 21.9818 9 21.9818C9.62025 21.9818 10.125 21.4822 10.125 20.8699V17.3798C10.125 16.7674 9.62025 16.2686 9 16.2686ZM15 23.25C13.7595 23.25 12.75 22.182 12.75 20.8695V17.3794C12.75 16.068 13.7595 15 15 15C16.2405 15 17.25 16.068 17.25 17.3798V20.8699C17.25 22.182 16.2405 23.25 15 23.25ZM15 16.2686C14.3797 16.2686 13.875 16.7674 13.875 17.3798V20.8699C13.875 21.4822 14.3797 21.9818 15 21.9818C15.6203 21.9818 16.125 21.4822 16.125 20.8699V17.3798C16.125 16.7674 15.6203 16.2686 15 16.2686ZM19.875 17.8886L22.068 23.25H23.25V15H22.125V20.3606L19.932 15H18.75V23.25H19.875V17.8886Z" fill="#EAA451"/>
</svg>
