<svg width="24" height="24" viewBox="0 0 24 24" fill="none" xmlns="http://www.w3.org/2000/svg">
<path d="M6.16652 9.285L6.16202 9.2895L6.15452 9.2985L6.13202 9.3285L6.05402 9.435C5.98952 9.525 5.90252 9.6555 5.80052 9.819C5.52998 10.2612 5.29812 10.7259 5.10752 11.208C4.64252 12.378 4.26752 14.0355 4.68602 15.9135C5.08202 17.6985 5.84702 19.3545 7.17302 20.5695C8.51252 21.7935 10.35 22.5 12.756 22.5C15.1815 22.5 17.082 21.6855 18.3705 20.2905C19.6485 18.9045 20.256 17.0205 20.256 15C20.256 13.7115 19.827 12.4665 19.251 11.304C18.7035 10.197 17.9925 9.108 17.325 8.0835L17.226 7.9335C16.5165 6.846 15.8715 5.841 15.441 4.884C15.0135 3.9285 14.8455 3.114 14.9895 2.397C15.0113 2.28823 15.0086 2.176 14.9817 2.06838C14.9549 1.96076 14.9045 1.86044 14.8342 1.77465C14.7639 1.68885 14.6754 1.61972 14.5752 1.57223C14.475 1.52474 14.3654 1.50007 14.2545 1.5C13.6215 1.5 12.5655 1.722 11.565 2.2395C10.5555 2.763 9.50102 3.639 9.04202 5.013C8.45702 6.768 9.13202 8.748 9.70652 9.9975C9.96302 10.5525 9.74102 11.1675 9.31652 11.3805C9.22111 11.4284 9.11718 11.4571 9.01069 11.4648C8.9042 11.4724 8.79724 11.459 8.69593 11.4253C8.59463 11.3916 8.50097 11.3382 8.42034 11.2682C8.3397 11.1983 8.27367 11.113 8.22602 11.0175L7.42502 9.414C7.3686 9.30119 7.28465 9.20442 7.18092 9.13266C7.07719 9.0609 6.95704 9.01646 6.83157 9.00345C6.70611 8.99044 6.5794 9.00928 6.46315 9.05823C6.34691 9.10718 6.24488 9.18616 6.16652 9.285Z" fill="#EAA451"/>
</svg>
