<svg width="24" height="24" viewBox="0 0 24 24" fill="none" xmlns="http://www.w3.org/2000/svg">
<g clip-path="url(#clip0_1_20)">
<path d="M22.875 0H13.875C13.257 0 12.3915 0.3585 11.955 0.795L0.796478 11.9535C0.586076 12.1649 0.467957 12.451 0.467957 12.7493C0.467957 13.0475 0.586076 13.3336 0.796478 13.545L10.455 23.2035C10.6664 23.4139 10.9525 23.532 11.2507 23.532C11.549 23.532 11.8351 23.4139 12.0465 23.2035L23.205 12.045C23.643 11.607 24 10.743 24 10.125V1.125C23.9988 0.826996 23.8799 0.541536 23.6692 0.330814C23.4584 0.120092 23.173 0.00118492 22.875 0ZM17.25 9C16.9544 8.9999 16.6617 8.94159 16.3887 8.82839C16.1157 8.71518 15.8676 8.54931 15.6587 8.34024C15.4497 8.13117 15.284 7.88299 15.171 7.60988C15.058 7.33677 14.9999 7.04407 15 6.7485C15.0001 6.45293 15.0584 6.16027 15.1716 5.88723C15.2848 5.6142 15.4507 5.36613 15.6597 5.1572C15.8688 4.94827 16.117 4.78256 16.3901 4.66954C16.6632 4.55652 16.9559 4.4984 17.2515 4.4985C17.8484 4.4987 18.4208 4.73602 18.8428 5.15826C19.2647 5.5805 19.5017 6.15306 19.5015 6.75C19.5013 7.34694 19.264 7.91934 18.8417 8.3413C18.4195 8.76326 17.8469 9.0002 17.25 9Z" fill="#EAA451"/>
</g>
<defs>
<clipPath id="clip0_1_20">
<rect width="24" height="24" fill="white"/>
</clipPath>
</defs>
</svg>
