<svg width="24" height="24" viewBox="0 0 24 24" fill="none" xmlns="http://www.w3.org/2000/svg">
<path d="M4.53376 19.155L4.33875 19.0556C4.17375 18.9694 3.94875 18.7294 4.04625 18.4537C4.1325 18.21 4.40625 18.1256 4.80563 18.2062C5.13938 18.2737 5.39438 18.4106 5.54813 18.4912L5.61188 18.495L5.65688 18.4519L5.9925 17.6325L5.96625 17.5406C5.69625 17.3456 4.9725 17.0437 4.2 17.13C3.67688 17.1881 3.15188 17.34 2.86313 18.045C2.68313 18.48 2.68313 18.975 2.86313 19.3294C3.05626 19.7175 3.37126 19.8919 3.77063 20.1112L3.825 20.1412C4.10813 20.295 4.43625 20.4581 4.6875 20.5856C5.02688 20.7619 5.15063 21.0806 5.07188 21.2719C4.94625 21.5775 4.67438 21.645 4.2 21.4969C3.77813 21.3731 3.39188 21.0225 3.28501 20.9194L3.22126 20.8987L3.165 20.9362L2.64563 21.8006L2.65688 21.8944C2.92688 22.1756 3.14625 22.3406 3.52688 22.5431C3.78375 22.68 4.15875 22.7625 4.53188 22.7625C4.92 22.7625 5.87063 22.665 6.28688 21.7631C6.54938 21.1912 6.45188 20.5856 6.01501 20.1C5.62501 19.7044 4.96875 19.3725 4.53376 19.155ZM21.2438 17.3944H20.2725C20.2106 17.3944 20.1619 17.445 20.1619 17.5069V20.6325L18.36 17.4506C18.3413 17.415 18.3038 17.3944 18.2625 17.3944H17.2913C17.2294 17.3944 17.1806 17.445 17.1806 17.5069V22.5506C17.1806 22.6125 17.2313 22.6631 17.2913 22.6631H18.2625C18.3244 22.6631 18.3731 22.6125 18.3731 22.5506V19.425L20.175 22.6069C20.1956 22.6425 20.2313 22.6631 20.2725 22.6631H21.2438C21.3056 22.6631 21.3563 22.6125 21.3563 22.5506V17.5069C21.3563 17.445 21.3056 17.3944 21.2438 17.3944ZM14.3156 17.2819C12.8006 17.2819 11.8538 18.4856 11.8538 19.9706C11.8538 21.4575 12.8006 22.6612 14.3156 22.6612C15.8306 22.6612 16.7775 21.4575 16.7775 19.9706C16.7775 18.4875 15.8306 17.2819 14.3156 17.2819ZM14.3156 21.3937C13.5281 21.3937 13.0369 20.7562 13.0369 19.9706C13.0369 19.1869 13.5281 18.5494 14.3156 18.5494C15.1031 18.5494 15.5944 19.1869 15.5944 19.9706C15.5944 20.7581 15.1031 21.3937 14.3156 21.3937ZM9.09375 17.2819C7.57875 17.2819 6.63188 18.4856 6.63188 19.9706C6.63188 21.4575 7.57875 22.6612 9.09375 22.6612C10.6088 22.6612 11.5556 21.4575 11.5556 19.9706C11.5556 18.4875 10.6088 17.2819 9.09375 17.2819ZM9.09375 21.3937C8.30813 21.3937 7.815 20.7562 7.815 19.9706C7.815 19.1869 8.30813 18.5494 9.09375 18.5494C9.88125 18.5494 10.3725 19.1869 10.3725 19.9706C10.3725 20.7581 9.88125 21.3937 9.09375 21.3937Z" fill="#78A3AD"/>
<path d="M20.94 9.0675L12.2925 15.4069V11.4525H3.06V6.72187H12.2925V2.72812L20.94 9.0675Z" fill="#ED6C30"/>
</svg>
