<svg id="Слой_1" data-name="Слой 1" xmlns="http://www.w3.org/2000/svg" viewBox="0 0 511.44 194.36"><defs><style>.cls-1,.cls-2{fill:#1d1d1b;}.cls-2{font-size:42.88px;font-family:Stem-Light, Stem Light;font-weight:300;letter-spacing:0.29em;}.cls-3{letter-spacing:0.29em;}.cls-4{letter-spacing:0.31em;}.cls-5{letter-spacing:0.3em;}.cls-6{letter-spacing:0.26em;}.cls-7{letter-spacing:0.28em;}.cls-8{letter-spacing:0.31em;}.cls-9{letter-spacing:0.27em;}.cls-10{letter-spacing:0.3em;}</style></defs><path class="cls-1" d="M248.28,54.49C246.46,27,224,3.18,196.51.45c-1.59,0-2.95-.23-4.54-.23h-4.09c-26.56.91-48.36,19.53-54.94,44.73-.46,2.5-.91,5-1.14,7.72-.23,1.14-.23,2.5-.45,3.86v3.41a13.34,13.34,0,0,1,.22,3,58.21,58.21,0,0,0,45,52.67,35.89,35.89,0,0,0,6.81,1.14,27.6,27.6,0,0,0,4.54.45H192c1.36,0,2.5-.22,3.86-.22l4.77-.69c27.7-5.9,45-26.33,47.68-53.81v-.68a5.11,5.11,0,0,1,.22-1.81v-2.5A14.4,14.4,0,0,1,248.28,54.49Zm-32.84,4.74a2.18,2.18,0,0,0-.1.79v.3c-1.19,12-8.7,20.86-20.77,23.43l-2.07.3c-.6,0-1.09.1-1.68.1H189a12,12,0,0,1-2-.2,16.15,16.15,0,0,1-3-.49,25.37,25.37,0,0,1-19.58-22.94,5.62,5.62,0,0,0-.1-1.29V57.75c.1-.59.1-1.19.2-1.68a33.43,33.43,0,0,1,.5-3.36A25.72,25.72,0,0,1,189,33.23h1.78c.69,0,1.28.1,2,.1,12,1.18,21.76,11.57,22.55,23.53a6,6,0,0,0,.1,1.28Z"/><path class="cls-1" d="M511.21,54.49C509.39,27,486.91,3.18,459.45.45c-1.58,0-2.95-.23-4.54-.23h-4.08c-26.57.91-48.36,19.53-54.95,44.73-.45,2.5-.91,5-1.13,7.72-.23,1.14-.23,2.5-.46,3.86v3.41a12.77,12.77,0,0,1,.23,3,58.22,58.22,0,0,0,45,52.67,36.12,36.12,0,0,0,6.82,1.14,27.6,27.6,0,0,0,4.54.45h4.08c1.37,0,2.5-.22,3.86-.22l4.77-.69c27.69-5.9,44.94-26.33,47.67-53.81v-.68a4.91,4.91,0,0,1,.23-1.81v-2.5A13.79,13.79,0,0,1,511.21,54.49Zm-32.84,4.74a2.4,2.4,0,0,0-.09.79v.3c-1.19,12-8.71,20.86-20.77,23.43l-2.08.3c-.59,0-1.08.1-1.68.1H452a11.93,11.93,0,0,1-2-.2,16.15,16.15,0,0,1-3-.49,25.36,25.36,0,0,1-19.58-22.94,5.62,5.62,0,0,0-.1-1.29V57.75c.1-.59.1-1.19.2-1.68a33.43,33.43,0,0,1,.5-3.36A25.71,25.71,0,0,1,452,33.23h1.78c.7,0,1.29.1,2,.1,12,1.18,21.75,11.57,22.55,23.53a6.62,6.62,0,0,0,.09,1.28Z"/><path class="cls-1" d="M116.92,54.26C115.1,26.79,92.62,3,65.16.23,63.57.23,62.21,0,60.62,0H56.53C30,.91,8.17,19.53,1.59,44.73c-.45,2.5-.91,5-1.14,7.72C.23,53.58.23,54.94,0,56.31v3.4a12.81,12.81,0,0,1,.23,2.95,58.23,58.23,0,0,0,45,52.68A35.09,35.09,0,0,0,52,116.47a27.67,27.67,0,0,0,4.54.46h4.09c1.36,0,2.5-.23,3.86-.23l4.77-.68c27.69-5.9,44.94-26.34,47.67-53.81v-.68a5.17,5.17,0,0,1,.22-1.82V57.22A14.5,14.5,0,0,1,116.92,54.26ZM92.73,51.68V84.24H82.43V52.39a9.42,9.42,0,0,0-8.23-9.32c-3.31,0-8.84,1.07-10.25,7.4a14.36,14.36,0,0,0-.14,1.83V84.24H53.42v-32a9.17,9.17,0,0,0-7-8.86l-.08,0-.09,0a6.63,6.63,0,0,0-1.93-.24,9.31,9.31,0,0,0-9.58,9.23V80l.09.09v4.11H24.41V53a25.32,25.32,0,0,1,.6-5.5v0l0-.05A19.68,19.68,0,0,1,38,33.72a17.08,17.08,0,0,1,5.61-1h1.06a11.39,11.39,0,0,1,2.69.32,19.52,19.52,0,0,1,11.22,6.05,20,20,0,0,1,14-6.37h1.5l.34.08h.34a21.27,21.27,0,0,1,12.38,5.86,17.78,17.78,0,0,1,5.58,12.76Z"/><path class="cls-1" d="M379.62,54.55c-1.81-27.47-24.29-51.31-51.75-54-1.59,0-2.95-.23-4.54-.23h-4.09C292.68,1.2,270.88,19.82,264.3,45a77.76,77.76,0,0,0-1.14,7.72c-.22,1.13-.22,2.5-.45,3.86V60a12.81,12.81,0,0,1,.23,3,58.21,58.21,0,0,0,44.95,52.68,35.09,35.09,0,0,0,6.81,1.13,27.56,27.56,0,0,0,4.54.46h4.09c1.36,0,2.5-.23,3.86-.23l4.77-.68c27.68-5.9,44.94-26.34,47.66-53.81v-.68a5,5,0,0,1,.23-1.82V57.51A13.88,13.88,0,0,1,379.62,54.55ZM342.86,53.4V84.24H332.61V55a11.25,11.25,0,0,0-10.21-11.4h-.07l-.07,0a9,9,0,0,0-1.11,0h-.51A11.22,11.22,0,0,0,310,54.63V84.24H299.79l-.09-29.61a4.11,4.11,0,0,1,.09-.94v-.48c1.13-11.54,9.86-19.74,21.21-19.94h2.08a21.9,21.9,0,0,1,19.76,19.88v.24Z"/><text class="cls-2" transform="translate(90.83 183.64)">N<tspan class="cls-3" x="40.62" y="0">O</tspan><tspan class="cls-4" x="82.54" y="0">N</tspan><tspan class="cls-5" x="123.86" y="0">-</tspan><tspan class="cls-6" x="150.06" y="0">F</tspan><tspan class="cls-7" x="182.25" y="0">İ</tspan><tspan class="cls-8" x="204.69" y="0">K</tspan><tspan class="cls-9" x="241.08" y="0">Ş</tspan><tspan class="cls-10" x="273.97" y="0">N</tspan></text></svg>