<svg width="308" height="331" viewBox="0 0 308 331" fill="none" xmlns="http://www.w3.org/2000/svg">
<path d="M153.901 330.87C140.853 330.883 128.033 327.458 116.731 320.94L37.8106 275.38C26.5232 268.84 17.1498 259.452 10.6271 248.154C4.10441 236.857 0.660882 224.045 0.640625 211V119.87C0.660882 106.825 4.10441 94.013 10.6271 82.7155C17.1498 71.4179 26.5232 62.03 37.8106 55.4899L116.731 9.92988C128.038 3.42373 140.855 -0.000488281 153.901 -0.000488281C166.946 -0.000488281 179.763 3.42373 191.071 9.92988L270.001 55.4899C281.287 62.0316 290.659 71.4198 297.182 82.717C303.704 94.0142 307.148 106.825 307.171 119.87V211C307.148 224.045 303.704 236.856 297.182 248.153C290.659 259.45 281.287 268.838 270.001 275.38L191.071 320.94C179.766 327.454 166.947 330.878 153.901 330.87ZM153.901 42.4999C148.32 42.4981 142.836 43.9638 138.001 46.7499L59.0606 92.3099C54.2304 95.1114 50.2193 99.1307 47.4276 103.967C44.6359 108.803 43.1612 114.286 43.1506 119.87V211C43.1612 216.584 44.6359 222.067 47.4276 226.903C50.2193 231.739 54.2304 235.758 59.0606 238.56L138.001 284.12C142.84 286.906 148.326 288.372 153.911 288.372C159.495 288.372 164.981 286.906 169.821 284.12L248.741 238.56C253.564 235.752 257.569 231.731 260.359 226.896C263.148 222.061 264.624 216.581 264.641 211V119.87C264.63 114.286 263.155 108.803 260.364 103.967C257.572 99.1307 253.561 95.1114 248.731 92.3099L169.811 46.7499C164.971 43.9634 159.485 42.4978 153.901 42.4999Z" fill="#1D1D1B"/>
<path d="M127.891 144.1L153.901 101.08L179.911 144.1L222.921 170.1L179.911 196.11L153.901 239.13L127.891 196.11L84.8809 170.1L127.891 144.1Z" fill="#1D1D1B"/>
</svg>
