<svg width="219" height="229" viewBox="0 0 219 229" fill="none" xmlns="http://www.w3.org/2000/svg">
<g clip-path="url(#clip0_154_4182)">
<path d="M173.92 68C173.615 66.5449 172.984 65.1779 172.075 64.0018C171.166 62.8256 170.001 61.8711 168.67 61.21C167.879 60.71 166.974 60.4192 166.04 60.365C165.106 60.3108 164.173 60.4949 163.33 60.9C163.806 61.0184 164.217 61.3202 164.471 61.7398C164.726 62.1594 164.805 62.6627 164.69 63.14C164.671 63.2114 164.648 63.2816 164.62 63.35C164.503 63.7302 164.262 64.0605 163.936 64.2887C163.61 64.5169 163.217 64.6299 162.82 64.61C162.386 64.583 161.969 64.4346 161.615 64.1817C161.261 63.9289 160.986 63.5818 160.82 63.18C160.02 61.76 160.45 60.35 160.92 58.96C162.03 55.7 164.1 52.96 165.57 49.85C167.29 46.25 168.41 42.64 167.39 38.59C167.094 37.1093 166.508 35.7016 165.668 34.4473C164.827 33.193 163.747 32.1167 162.49 31.28C161.176 30.3993 159.657 29.8738 158.079 29.7546C156.502 29.6354 154.921 29.9267 153.49 30.6C153.13 30.75 152.7 31 152.81 31.35C152.842 31.4377 152.9 31.513 152.978 31.5651C153.055 31.6172 153.147 31.6435 153.24 31.64C153.662 31.5952 154.084 31.7196 154.414 31.9858C154.744 32.2521 154.955 32.6384 155 33.06C155.005 33.1266 155.005 33.1934 155 33.26C155.053 33.6526 154.97 34.0514 154.764 34.39C154.558 34.7285 154.243 34.9862 153.87 35.12C153.342 35.3169 152.764 35.3375 152.224 35.1789C151.683 35.0203 151.208 34.6909 150.87 34.24C148.87 31.96 148.35 29.1 148.1 26.24C147.91 24.11 148.01 21.95 147.63 19.83C146.87 15.6 145.37 11.83 141.19 9.75001C137.33 7.84001 132.48 7.44001 128.89 10.8C128.425 11.1946 128.05 11.6846 127.792 12.2367C127.533 12.7889 127.396 13.3902 127.39 14C127.79 13.83 128.11 13.71 128.39 13.56C128.746 13.3885 129.147 13.333 129.536 13.4012C129.925 13.4693 130.283 13.6578 130.56 13.94C130.819 14.1968 130.987 14.5308 131.039 14.8915C131.092 15.2523 131.025 15.6203 130.85 15.94C130.708 16.3035 130.456 16.614 130.13 16.8289C129.804 17.0437 129.42 17.1524 129.03 17.14C126.78 17.26 125.23 16.03 123.89 14.48C122.678 12.9669 121.6 11.3508 120.67 9.65001C118.874 6.51857 116.421 3.81323 113.48 1.72001C110.6 -0.279988 107.65 -0.679988 104.48 1.23001C101.598 3.08154 99.1573 5.54271 97.3299 8.44001C96.106 10.5109 94.7707 12.5138 93.3299 14.44C91.9999 16.05 90.3899 17.27 88.0999 17.11C87.7284 17.1195 87.3624 17.0192 87.0476 16.8218C86.7328 16.6244 86.4832 16.3385 86.3299 16C86.1554 15.6815 86.0874 15.3155 86.136 14.9556C86.1846 14.5957 86.3472 14.2608 86.5999 14C86.8629 13.727 87.2022 13.5399 87.5734 13.4631C87.9446 13.3864 88.3303 13.4237 88.6799 13.57L89.7699 14.02C89.8392 13.4929 89.7301 12.9578 89.4599 12.5C88.7419 11.0983 87.5571 9.99127 86.1099 9.37001C83.4999 7.92001 80.7299 8.15001 77.9999 9.00001C76.473 9.40606 75.0542 10.1434 73.8444 11.1596C72.6346 12.1759 71.6634 13.4461 70.9999 14.88C69.6419 18.0762 68.9936 21.5289 69.0999 25C69.1174 27.6477 68.5506 30.2665 67.4399 32.67C67.1993 33.3516 66.7865 33.9594 66.2415 34.4342C65.6966 34.9091 65.038 35.2349 64.3299 35.38C63.8342 35.426 63.3392 35.2855 62.9416 34.9859C62.544 34.6863 62.2724 34.2492 62.1799 33.76C62.1125 33.3078 62.2226 32.847 62.4873 32.4742C62.752 32.1013 63.1507 31.8454 63.5999 31.76C63.9299 31.7 64.3899 31.76 64.4299 31.38C64.4699 31 64.0699 30.86 63.7499 30.71C61.6785 29.729 59.3108 29.5752 57.1299 30.28C51.2299 32.05 48.7599 38.41 49.5299 43.91C50.0099 47.31 51.7199 50.28 53.3699 53.22C54.8082 55.4755 55.9288 57.9185 56.6999 60.48C56.9104 61.1976 56.8915 61.9631 56.6459 62.6694C56.4003 63.3758 55.9402 63.9878 55.3299 64.42C54.9188 64.6615 54.4304 64.7349 53.9665 64.625C53.5025 64.515 53.099 64.2303 52.8399 63.83C52.706 63.6348 52.6121 63.4149 52.5637 63.1832C52.5153 62.9514 52.5134 62.7123 52.558 62.4798C52.6027 62.2473 52.693 62.0259 52.8238 61.8286C52.9546 61.6312 53.1232 61.4618 53.3199 61.33C53.4799 61.21 53.6899 61.17 53.6699 60.89C52.9103 60.4965 52.0459 60.3531 51.1999 60.48C49.2286 60.7315 47.416 61.6911 46.0999 63.18C45.3603 63.8154 44.7229 64.5608 44.2099 65.39C42.9699 67.88 43.3199 70.51 43.9099 73C44.6033 75.4115 45.909 77.6026 47.6999 79.36C50.4595 82.2297 53.6598 84.64 57.1799 86.5C58.972 87.4268 60.622 88.6054 62.0799 90C62.5819 90.5001 62.9397 91.1263 63.1157 91.8126C63.2917 92.499 63.2793 93.2201 63.0799 93.9C62.8358 94.4357 62.389 94.8525 61.8377 95.0588C61.2863 95.265 60.6757 95.2439 60.1399 95H60.0799C59.1399 94.44 59.0799 93.63 59.8399 92.39C59.9299 92.23 60.0899 92.04 59.8399 91.86C57.0799 92.45 54.8399 95.46 54.6799 98.71C54.3999 104.11 59.4599 109.47 64.3999 110.47C67.8995 111.041 71.4638 111.099 74.9799 110.64C77.4142 110.314 79.8862 110.406 82.2899 110.91C82.9874 111.125 83.6065 111.54 84.0704 112.104C84.5343 112.667 84.8227 113.354 84.8999 114.08C84.9141 114.592 84.7428 115.091 84.4174 115.486C84.0921 115.882 83.6348 116.146 83.1299 116.23C82.2199 116.34 81.4999 115.66 81.2499 114.47C81.2499 114.33 81.3199 114.13 81.0999 114.07C78.4199 115.89 78.7099 119.8 80.3899 122.44C83.2399 126.93 89.5699 128.71 94.1299 127.63C99.4199 126.38 102.92 122.92 105.23 118.13C105.913 116.588 106.446 114.984 106.82 113.34C107.06 112.34 107.27 111.44 107.42 110.49C107.467 110.209 107.613 109.954 107.831 109.771C108.049 109.588 108.325 109.488 108.61 109.49C108.895 109.488 109.171 109.588 109.389 109.771C109.607 109.954 109.752 110.209 109.8 110.49C109.948 111.637 110.172 112.773 110.47 113.89C111.278 117.33 112.951 120.507 115.33 123.12C119.33 127.3 124.26 128.96 129.95 127.25C133.56 126.16 136.5 124.15 137.71 120.31C138.44 117.96 138.05 115.23 135.98 114.02L135.92 114.42C135.68 115.62 134.97 116.3 134.06 116.2C133.556 116.108 133.103 115.837 132.785 115.436C132.466 115.035 132.305 114.531 132.33 114.02C132.429 113.314 132.725 112.651 133.183 112.104C133.641 111.558 134.242 111.151 134.92 110.93C137.15 110.429 139.45 110.311 141.72 110.58C144.667 110.868 147.633 110.932 150.59 110.77C153.827 110.584 156.872 109.176 159.11 106.83C162 103.83 163.35 100.4 162.11 96.27C161.776 95.1707 161.158 94.1788 160.319 93.3941C159.48 92.6094 158.449 92.0596 157.33 91.8C157.21 92.25 157.5 92.42 157.65 92.67C157.822 92.9132 157.923 93.1989 157.944 93.4959C157.965 93.7929 157.904 94.0899 157.768 94.3548C157.632 94.6196 157.426 94.8421 157.173 94.9982C156.919 95.1543 156.628 95.2379 156.33 95.24C155.853 95.2489 155.385 95.1107 154.99 94.8441C154.594 94.5774 154.29 94.1954 154.12 93.75C153.927 93.0965 153.918 92.4024 154.095 91.7442C154.271 91.086 154.626 90.4894 155.12 90.02C156.237 88.8244 157.549 87.8269 159 87.07C162.74 84.9 166.41 82.69 169.38 79.45C171.97 76.62 173.84 73.52 173.71 69.53C173.72 69 174 68.6 173.92 68ZM108.64 101.67C101.174 101.672 93.8745 99.4599 87.6655 95.3135C81.4564 91.1672 76.6163 85.2727 73.7573 78.3756C70.8983 71.4784 70.1487 63.8883 71.6033 56.5652C73.058 49.242 76.6515 42.5146 81.9296 37.2338C87.2076 31.953 93.933 28.3559 101.255 26.8973C108.578 25.4388 116.168 26.1844 123.067 29.0397C129.966 31.8951 135.863 36.7321 140.012 42.9389C144.162 49.1458 146.378 56.4438 146.38 63.91V64C146.369 74.0033 142.389 83.5933 135.313 90.6639C128.236 97.7345 118.643 101.707 108.64 101.71V101.67Z" fill="#1D1D1B"/>
<path d="M127.17 66.58C127.17 67.5305 127.1 68.4798 126.96 69.42C123.96 90.16 93.3201 90.16 90.3101 69.42C90.1702 68.4798 90.1 67.5305 90.1001 66.58C90.1001 51.22 108.64 38.78 108.64 38.78C108.64 38.78 127.17 51.22 127.17 66.58Z" fill="#1D1D1B"/>
<path d="M16.12 206.94H1V159.45H16.12V206.94Z" fill="#1D1D1B"/>
<path d="M58.7499 158.86L57.3499 174C54.8949 173.198 52.3324 172.773 49.7499 172.74C44.3699 172.74 41.0799 175.4 41.0799 181.31V206.97H25.8999V159.45H40.4699V164.93C43.2299 160.34 47.6299 158.15 53.4099 158.15C55.2141 158.14 57.011 158.379 58.7499 158.86Z" fill="#1D1D1B"/>
<path d="M99.7598 174.07C95.0698 172.07 88.9698 170.44 84.1198 170.39C80.1198 170.39 78.5998 171.55 78.5998 173.29C78.5998 175.29 81.5998 175.81 86.2598 176.53L89.7398 177.07C99.9098 178.61 105.28 183.54 105.28 191.5C105.28 201.9 97.1898 208.15 83.2798 208.15C75.1498 208.15 66.7698 206.69 61.3398 203.15L66.6298 191.43C71.6991 194.442 77.5041 195.989 83.3998 195.9C88.0898 195.9 90.0298 194.84 90.0298 192.8C90.0298 190.96 87.8998 190.23 82.5298 189.41L79.7698 189C68.3398 187.3 63.0098 182.52 63.0098 174C63.0098 163.88 70.6098 158.12 83.5398 158.12C91.2398 158.12 96.1798 159.18 103.98 162.12L99.7598 174.07Z" fill="#1D1D1B"/>
<path d="M160.41 206.94H145.75V201.81C142.89 205.54 138.53 208.21 132.09 208.21C119.41 208.21 110.01 197.21 110.01 183.12C110.01 169.03 119.41 158.12 132.14 158.12C134.762 158.022 137.369 158.559 139.739 159.685C142.109 160.812 144.171 162.495 145.75 164.59V159.46H160.41V206.94ZM125.61 183.18C125.61 189.37 129.61 194.07 135.73 194.07C141.85 194.07 145.9 189.46 145.9 183.18C145.9 176.9 141.69 172.28 135.73 172.28C129.77 172.28 125.6 176.98 125.6 183.18H125.61Z" fill="#1D1D1B"/>
<path d="M203.14 164V137.22H218.25V206.94H203.58V201.81C200.72 205.54 196.36 208.21 189.93 208.21C177.24 208.21 167.84 197.21 167.84 183.12C167.84 169.03 177.24 158.12 189.98 158.12C192.476 158.033 194.96 158.518 197.24 159.537C199.521 160.556 201.539 162.082 203.14 164ZM183.48 183.18C183.48 189.37 187.48 194.07 193.59 194.07C199.7 194.07 203.77 189.46 203.77 183.18C203.77 176.9 199.55 172.28 193.59 172.28C187.63 172.28 183.44 176.98 183.44 183.18H183.48Z" fill="#1D1D1B"/>
<path d="M92.7503 220.36C92.7486 220.785 92.7218 221.209 92.6703 221.63C91.3203 230.88 77.5203 230.88 76.1703 221.63C76.1072 221.21 76.0738 220.785 76.0703 220.36C76.0703 213.44 84.4203 207.84 84.4203 207.84C84.4203 207.84 92.7503 213.44 92.7503 220.36Z" fill="#1D1D1B"/>
<path d="M7.64634e-05 145.71C-0.00141786 145.281 0.0320262 144.853 0.100076 144.43C1.44008 135.18 15.2501 135.18 16.5901 144.43C16.71 145.279 16.71 146.141 16.5901 146.99C15.2501 156.23 1.44008 156.23 0.100076 146.99C0.0316249 146.567 -0.00182173 146.139 7.64634e-05 145.71Z" fill="#1D1D1B"/>
</g>
<defs>
<clipPath id="clip0_154_4182">
<rect width="218.25" height="228.57" fill="white"/>
</clipPath>
</defs>
</svg>
