<svg width="432" height="444" viewBox="0 0 432 444" fill="none" xmlns="http://www.w3.org/2000/svg">
<g clip-path="url(#clip0_156_4202)">
<path d="M405 397.79C404.68 398.45 404.52 398.79 404.34 399.16C401.27 405.16 398.2 411.16 395.16 417.24C395.014 417.577 394.78 417.869 394.483 418.085C394.186 418.302 393.836 418.434 393.47 418.47C389.39 419.239 385.191 419.123 381.159 418.129C377.128 417.135 373.356 415.287 370.1 412.71C365.41 409.074 361.843 404.186 359.81 398.61C356.692 390.597 356.378 381.764 358.92 373.55C360.204 369.306 362.352 365.373 365.23 362C374.33 351.36 385.89 347.12 399.7 348.91C405.839 349.618 411.681 351.944 416.626 355.649C421.572 359.355 425.446 364.307 427.85 370C430.14 375.527 431.26 381.469 431.14 387.45V442.68C431.14 443.52 430.99 443.86 430.03 443.85C423.164 443.81 416.284 443.81 409.39 443.85C408.45 443.85 408.26 443.58 408.27 442.69V387.94C408.441 383.864 407.486 379.819 405.51 376.25C404.497 374.585 403.166 373.137 401.592 371.987C400.019 370.838 398.235 370.009 396.341 369.549C394.447 369.09 392.482 369.008 390.556 369.308C388.631 369.608 386.784 370.285 385.12 371.3C384.9 371.43 384.69 371.56 384.48 371.71C382.126 373.511 380.334 375.944 379.312 378.726C378.29 381.508 378.081 384.524 378.71 387.42C380.54 395.51 387.31 400.42 395.76 399.94C397.297 399.892 398.826 399.708 400.33 399.39C401.934 399.004 403.497 398.469 405 397.79Z" fill="#1D1D1B"/>
<path d="M0 399.25H34.76C36.0732 399.356 37.3922 399.136 38.6 398.61C40.94 397.38 41.6 394.51 39.99 392.08C39.4423 391.26 38.8303 390.484 38.16 389.76L19.06 369C15.5103 365.151 12.2482 361.047 9.3 356.72C4.05 348.96 5.07 337.86 10.3 331.17C12.2222 328.735 14.5997 326.697 17.3 325.17C17.5133 325.05 17.7555 324.991 18 325H40.05C39.7735 325.329 39.3983 325.561 38.98 325.66C34.9348 327.38 31.6589 330.521 29.77 334.49C28.8397 336.432 28.4203 338.578 28.5516 340.727C28.6828 342.876 29.3603 344.956 30.52 346.77C32.73 350.6 35.86 353.71 38.79 356.97C44.71 363.6 50.9 369.97 56.55 376.85C58.94 379.532 60.8999 382.568 62.36 385.85C66.03 395.07 64.25 405.11 56.75 411.99C52.2153 416.239 46.214 418.572 40 418.5C30.16 418.5 20.32 418.5 10.47 418.5C10.2413 418.533 10.008 418.49 9.80584 418.378C9.60365 418.266 9.44358 418.091 9.35 417.88C6.32333 411.88 3.27667 405.88 0.21 399.88C0.128025 399.674 0.0579106 399.464 0 399.25Z" fill="#1D1D1B"/>
<path d="M129.84 369.12C130.03 368.74 130.19 368.38 130.37 368.03C133.27 362.5 136.19 356.97 139.07 351.42C139.219 351.114 139.433 350.845 139.697 350.63C139.962 350.416 140.27 350.262 140.6 350.18C145.625 348.498 151.018 348.242 156.18 349.44C159.238 350.139 162.101 351.514 164.559 353.464C167.016 355.414 169.005 357.89 170.38 360.71C172.192 364.446 173.087 368.559 172.99 372.71V417.4C172.99 418.2 172.86 418.53 171.93 418.53C165.01 418.49 158.093 418.49 151.18 418.53C150.26 418.53 150.11 418.22 150.12 417.41V382.6C150.193 380.259 149.855 377.924 149.12 375.7C148.319 373.543 146.907 371.666 145.057 370.298C143.206 368.931 140.997 368.132 138.7 368C136.068 367.838 133.429 368.153 130.91 368.93C130.585 369.112 130.208 369.179 129.84 369.12Z" fill="#1D1D1B"/>
<path d="M175.32 369.09C175.25 368.69 175.53 368.41 175.69 368.09L184.49 351.28C184.615 351.025 184.793 350.799 185.012 350.618C185.231 350.437 185.486 350.305 185.76 350.23C190.779 348.532 196.168 348.241 201.34 349.39C204.501 350.075 207.46 351.484 209.984 353.505C212.509 355.526 214.53 358.106 215.89 361.04C217.6 364.663 218.442 368.635 218.35 372.64V417.3C218.35 418.3 218.06 418.55 217.09 418.55C210.277 418.51 203.467 418.51 196.66 418.55C195.72 418.55 195.45 418.34 195.46 417.35V382.13C195.615 379.342 195.032 376.561 193.77 374.07C192.799 372.321 191.396 370.851 189.694 369.801C187.992 368.75 186.048 368.154 184.05 368.07C181.453 367.862 178.839 368.168 176.36 368.97C176.082 369.057 175.798 369.124 175.51 369.17C175.51 369.17 175.4 369.11 175.32 369.09Z" fill="#1D1D1B"/>
<path d="M227.94 375.37V352C227.94 350.36 227.94 350.37 229.63 350.37H249.83C250.62 350.37 250.83 350.57 250.83 351.37V387C250.739 389.345 251.078 391.687 251.83 393.91C253.52 398.38 257.38 400.91 262.44 400.91C264.6 400.924 266.748 400.587 268.8 399.91C269.04 399.83 269.36 399.56 269.58 399.91C269.8 400.26 269.52 400.4 269.4 400.63L260.29 418C260.212 418.162 260.1 418.305 259.962 418.421C259.824 418.536 259.663 418.621 259.49 418.67C253.871 420.72 247.728 420.829 242.04 418.98C239.363 418.057 236.91 416.58 234.842 414.645C232.775 412.71 231.138 410.36 230.04 407.75C228.577 404.332 227.881 400.636 228 396.92L227.94 375.37Z" fill="#1D1D1B"/>
<path d="M93.9401 384.62V417.1C93.9401 418.79 94.1001 418.53 92.4701 418.53H72.2801C71.4301 418.53 71.0801 418.39 71.0901 417.42V351.42C71.0901 350.5 71.3601 350.26 72.2601 350.27C79.1001 350.31 85.9401 350.31 92.7801 350.27C93.7801 350.27 93.9701 350.62 93.9701 351.53C93.9434 362.577 93.9334 373.607 93.9401 384.62Z" fill="#1D1D1B"/>
<path d="M328.47 384.53V417C328.47 418.53 328.47 418.53 326.99 418.53H306.91C305.83 418.53 305.56 418.18 305.57 417.15V351.75C305.57 350.31 305.57 350.29 307.05 350.29H326.8C328.49 350.29 328.49 350.29 328.49 352.02L328.47 384.53Z" fill="#1D1D1B"/>
<path d="M104.56 384.39V351.57C104.56 350.64 104.74 350.33 105.75 350.34C112.59 350.387 119.427 350.387 126.26 350.34C127.15 350.34 127.36 350.61 127.36 351.45V417.45C127.36 418.37 127.14 418.61 126.22 418.61C119.38 418.57 112.54 418.57 105.7 418.61C104.78 418.61 104.56 418.37 104.56 417.46C104.567 406.427 104.567 395.403 104.56 384.39Z" fill="#1D1D1B"/>
<path d="M272.24 384.39V351.26C272.24 350.51 272.42 350.34 273.15 350.34H293.45C295.08 350.34 295.08 350.34 295.08 351.93V417.35C295.08 418.19 294.85 418.56 293.9 418.56C287.027 418.52 280.153 418.52 273.28 418.56C272.48 418.56 272.21 418.39 272.22 417.56V384.39H272.24Z" fill="#1D1D1B"/>
<path d="M82.1301 345.4C77.5001 345.15 73.6701 343.14 71.5201 338.57C70.4623 336.173 70.2951 333.476 71.0485 330.966C71.802 328.457 73.4267 326.298 75.6301 324.88C78.138 323.255 81.1424 322.576 84.1052 322.965C87.068 323.353 89.7958 324.784 91.8001 327C93.652 329.148 94.6027 331.928 94.4536 334.761C94.3046 337.593 93.0673 340.258 91.0001 342.2C88.5729 344.381 85.3907 345.529 82.1301 345.4Z" fill="#1D1D1B"/>
<path d="M354.57 361.88V372.09C354.57 372.75 354.57 373.28 353.64 372.71C348.57 369.71 342.98 368.91 337.19 369C335.402 369.032 333.618 369.178 331.85 369.44C331.59 369.44 331.32 369.6 331.12 369.38C330.92 369.16 331.12 368.82 331.27 368.59C334.196 362.83 337.133 357.07 340.08 351.31C340.131 351.153 340.217 351.009 340.331 350.89C340.445 350.77 340.585 350.678 340.74 350.62C344.84 349.48 348.96 348.86 353.16 350.06C353.383 350.091 353.597 350.165 353.791 350.28C353.985 350.394 354.154 350.546 354.288 350.727C354.422 350.908 354.519 351.114 354.572 351.332C354.626 351.551 354.635 351.778 354.6 352C354.53 355.29 354.57 358.58 354.57 361.88Z" fill="#1D1D1B"/>
<path d="M125.06 78.78C123.69 80.29 122.35 81.84 121.06 83.42C122.35 81.81 123.69 80.27 125.06 78.78Z" fill="#1D1D1B"/>
<path d="M104.45 109.71C104.904 109.65 105.348 109.529 105.77 109.35L104.88 108.8C103.513 111.653 102.253 114.56 101.1 117.52C102.133 114.873 103.25 112.27 104.45 109.71Z" fill="#1D1D1B"/>
<path d="M177.89 255.75C172.965 262.208 168.414 268.942 164.26 275.92C166.26 276.873 168.293 277.77 170.36 278.61C173.47 270.96 176.8 263.41 180.15 255.86C180.4 255.3 180.85 254.73 180.43 254.02C179 253.74 178.51 254.92 177.89 255.75Z" fill="#1D1D1B"/>
<path d="M136.43 257.86C143.715 250.873 151.394 244.308 159.43 238.2C160.37 237.5 161.56 237 162.08 235.53C160.44 234.86 159.22 235.93 158.08 236.53C148.78 241.62 139.55 246.83 130.79 252.8C129.99 252.02 129.19 251.23 128.4 250.43C131.682 253.774 135.151 256.929 138.79 259.88C138.05 259.23 137.23 258.55 136.43 257.86Z" fill="#1D1D1B"/>
<path d="M125.71 247.52C125.1 246.86 124.5 246.18 123.9 245.52C124.51 246.18 125.1 246.86 125.71 247.52Z" fill="#1D1D1B"/>
<path d="M339.93 135.63C339.71 134.63 339.47 133.63 339.22 132.63C339.51 133.6 339.71 134.61 339.93 135.63Z" fill="#1D1D1B"/>
<path d="M181.66 282.62C177.807 281.46 174.04 280.127 170.36 278.62C174.04 280.133 177.807 281.467 181.66 282.62Z" fill="#1D1D1B"/>
<path d="M337.59 126.64C337.88 127.64 338.17 128.64 338.44 129.64C337.634 126.7 336.724 123.803 335.71 120.95C324.58 123.95 313.34 126.57 301.93 128.53C299.26 128.99 296.58 129.38 293.93 129.81V130.94C297.38 130.94 300.85 131.19 304.29 130.94C315.465 130.162 326.584 128.727 337.59 126.64Z" fill="#1D1D1B"/>
<path d="M297.7 146.69C312.39 147.07 327.08 147.4 341.63 144.99C341.77 145.99 341.9 146.9 342.01 147.87C341.64 144.77 341.16 141.7 340.57 138.68C327.924 141.358 315.111 143.182 302.22 144.14C299.6 144.34 297.06 144.89 294.06 144.97C294.475 145.537 295.026 145.992 295.662 146.292C296.297 146.592 296.998 146.729 297.7 146.69Z" fill="#1D1D1B"/>
<path d="M137.26 67C140.36 64.39 143.6 61.92 146.95 59.61C143.6 62 140.36 64.42 137.26 67Z" fill="#1D1D1B"/>
<path d="M340.57 138.68C340.37 137.68 340.16 136.68 339.93 135.68C340.16 136.64 340.37 137.66 340.57 138.68Z" fill="#1D1D1B"/>
<path d="M121.05 83.42C119.163 85.7333 117.35 88.11 115.61 90.55C116.09 89.88 116.61 89.22 117.06 88.55C117.53 88.8283 117.963 89.1643 118.35 89.55C130.45 98.83 143.8 105.95 157.62 112.25C159.347 113.118 161.257 113.56 163.19 113.54C160.05 110.72 156.68 108.98 153.49 107.02C142.142 99.9149 131.303 92.0293 121.05 83.42Z" fill="#1D1D1B"/>
<path d="M161.57 96.67C163.8 98.01 165.95 100.14 169.42 99.98C167.22 97.23 164.49 95.66 162.05 93.82C152.251 86.3924 142.886 78.4093 134 69.91C135 69.04 135.94 68.19 136.93 67.35C134.31 69.58 131.77 71.9 129.35 74.35C139.519 82.582 150.289 90.0427 161.57 96.67Z" fill="#1D1D1B"/>
<path d="M128.19 250.13C127.51 249.44 126.84 248.73 126.19 248.03C126.84 248.74 127.51 249.44 128.19 250.13Z" fill="#1D1D1B"/>
<path d="M332.71 113.28C333.79 115.78 334.79 118.323 335.71 120.91C334.79 118.303 333.79 115.76 332.71 113.28Z" fill="#1D1D1B"/>
<path d="M331.11 109.73C331.61 110.8 332.11 111.87 332.57 112.95C332.1 111.87 331.61 110.79 331.11 109.73Z" fill="#1D1D1B"/>
<path d="M99.7402 121.22C100.154 120.04 100.584 118.87 101.03 117.71C100.577 118.87 100.147 120.04 99.7402 121.22Z" fill="#1D1D1B"/>
<path d="M342.83 166.7C342.83 167.57 342.78 168.43 342.73 169.29C342.78 168.43 342.81 167.57 342.83 166.7Z" fill="#1D1D1B"/>
<path d="M342.24 175.73C342.34 174.73 342.42 173.79 342.5 172.82C342.42 173.79 342.34 174.76 342.24 175.73Z" fill="#1D1D1B"/>
<path d="M342.23 175.84C341.798 180.02 341.154 184.175 340.3 188.29C341.113 184.21 341.756 180.06 342.23 175.84Z" fill="#1D1D1B"/>
<path d="M193.14 285.49C194.14 285.69 195.14 285.88 196.21 286.06C195.18 285.88 194.16 285.69 193.14 285.49Z" fill="#1D1D1B"/>
<path d="M342.51 172.52C342.58 171.61 342.63 170.69 342.68 169.77C342.65 170.69 342.6 171.61 342.51 172.52Z" fill="#1D1D1B"/>
<path d="M333.15 187.4C326.44 185.97 319.77 184.33 313.08 182.8C312.33 182.63 311.39 182.72 311.16 181.8C310.88 180.7 311.99 180.69 312.59 180.34C322.649 174.725 332.108 168.097 340.82 160.56C341.5 159.95 342.17 159.34 342.82 158.72C342.82 160.07 342.89 161.43 342.89 162.79C342.892 157.817 342.598 152.848 342.01 147.91C342.12 148.91 342.22 149.82 342.32 150.78C339.815 153.858 336.993 156.664 333.9 159.15C330.77 161.54 326.43 160.8 322.64 161.04C314.467 161.692 306.252 161.578 298.1 160.7C295.857 160.6 293.61 160.68 291.38 160.94C292.38 162.3 293.66 162.36 294.8 162.54C303.53 163.92 312.14 166.23 321.09 166.13C322.09 166.13 323.59 165.62 323.9 167.06C324.14 168.17 322.77 168.56 321.99 169.06C316.83 172.7 311.424 175.978 305.81 178.87C305 179.329 304.099 179.604 303.171 179.675C302.243 179.745 301.31 179.611 300.44 179.28C294.8 177.28 289.13 175.39 283.44 173.47C282.63 173.19 281.88 172.58 280.5 173.1C282.5 175.82 285.5 176.76 288.1 178.1C300.647 184.472 313.866 189.426 327.51 192.87C328.33 193.08 329.56 193.02 329.67 194.08C329.79 195.35 328.43 195.42 327.59 195.83C320.568 199.108 313.239 201.684 305.71 203.52C304.663 203.841 303.558 203.924 302.475 203.763C301.392 203.602 300.358 203.202 299.45 202.59C290.23 196.87 281.16 190.95 272.87 183.91C272.36 183.48 271.87 182.97 271 183.46C271.66 185.52 273.28 186.99 274.71 188.36C279.98 193.36 285.16 198.55 291.01 202.95C291.8 203.55 292.94 204.14 292.73 205.2C292.41 206.74 290.92 205.99 289.93 206.2C285.1 206.99 280.21 206.71 275.34 206.87C272.46 206.97 270.34 206.22 269.09 203.17C267.61 199.51 265.64 196.05 263.87 192.47C262.31 192.92 262.67 194 262.87 194.91C263.51 197.7 264.19 200.5 264.93 203.27C265.54 205.52 264.93 206.38 262.5 205.97C257.62 205.15 257.33 204.85 257.71 200.08C258.35 191.98 256.05 184.5 252.51 177.4C251.17 174.69 251.51 173.27 254.2 171.87C269.2 163.87 273.61 150.04 274.49 134.39C274.782 129.743 274.558 125.078 273.82 120.48C273.33 117.48 275.36 117.26 277.42 116.97C291.55 114.921 305.549 112.059 319.35 108.4C322.61 107.54 325.857 106.647 329.09 105.72C329.68 106.88 330.26 108.05 330.82 109.23C323.062 92.8782 311.85 78.4035 297.957 66.8041C284.064 55.2047 267.82 46.7567 250.346 42.0427C232.872 37.3286 214.584 36.4607 196.742 39.4987C178.9 42.5368 161.929 49.4085 147 59.64C155.65 68.03 164.94 75.64 174.17 83.4C179.418 87.826 184.889 91.9814 190.56 95.85C192.91 97.43 192.96 98.97 191.3 101.33C184 111.69 178.83 123 179 135.85C179.18 147.17 184.34 156.51 193.31 163.51C196.79 166.22 200.6 168.51 204.31 170.99C204.549 171.213 204.851 171.358 205.174 171.404C205.498 171.451 205.828 171.397 206.12 171.25C206.278 170.942 206.308 170.584 206.203 170.255C206.098 169.925 205.867 169.65 205.56 169.49C198.35 164 197.72 155.82 196.69 147.82C195.45 138.18 196.15 128.82 201.03 120.12C206.12 111.02 216.92 106.23 226.34 106.29C226.92 106.29 227.68 106.39 227.69 106.96C227.77 110.87 229.83 108.42 230.94 107.89C233.5 106.67 236.07 105.82 238.94 106.52C239.7 106.71 240.49 107.05 240.51 107.99C240.53 108.93 239.72 108.99 239.08 108.99C237.77 109.14 236.91 110.09 235.94 110.79C234.97 111.49 232.7 112.37 233.18 113.69C233.83 115.49 235.36 113.45 236.54 113.52C236.96 113.52 237.54 113.52 237.75 113.72C238.18 114.17 237.93 114.72 237.62 115.23C231.06 126.04 231.13 137.41 234.73 149.11C235.05 150.17 235.86 151.33 234.8 152.9C230.8 147.21 229.65 140.63 227.3 134.31C225.82 135.16 226.11 136.31 226.3 137.48C228.14 150.79 233.77 162.36 242.2 172.72C247.13 178.77 251.54 185.36 252.58 193.21C254.13 204.86 250.13 214.98 242.2 223.56C240.63 225.27 238.95 226.89 237.2 228.47C236.44 229.17 235.53 230.47 234.42 229.55C233.42 228.79 234.53 227.75 234.92 226.89C237.702 220.953 239.318 214.537 239.68 207.99C240.43 194.83 236.39 183.14 229.07 172.42C227.4 169.97 225.88 167.42 222.81 165.86C224.49 169.54 226.32 173.15 227.81 176.86C233.27 190.5 234.7 204.5 231.06 218.86C229.508 224.542 226.691 229.8 222.82 234.24C218.82 239.06 213.33 237.46 208.36 238.14C207.84 238.22 207.1 237.85 207.26 237.21C207.477 236.602 207.875 236.075 208.4 235.7C215.87 229.7 219.18 221.56 220.4 212.39C221.4 204.91 219.47 197.89 216.48 191.11C216.19 190.45 216.23 189.27 215.22 189.45C214.03 189.66 214.31 190.84 214.47 191.65C215.304 196.687 215.256 201.83 214.33 206.85C212.82 216.64 208.57 224.85 200.56 231.01C195.22 235.1 194.01 235.2 188.44 231.3C187.62 230.73 186.88 230.05 186.07 229.47C184.2 228.15 184.2 226.89 186.13 225.62C194.73 219.98 197.65 211.41 198.32 201.72C198.38 200.84 199.01 199.4 197.64 199.23C196.45 199.09 196.41 200.6 196.18 201.49C194.18 209.17 190.42 215.59 183.18 219.55C180.18 221.23 179.18 220.92 178.3 217.47C175.72 207.16 178.14 198.19 184.9 189.91C189.78 183.91 194.56 178.91 203.19 181.58C203.701 181.734 204.249 181.714 204.747 181.522C205.245 181.33 205.665 180.977 205.94 180.52C202.39 178.99 199.05 177.46 195.63 176.13C194.63 175.73 193.87 176.75 193.12 177.42C190.49 179.79 187.74 182.02 185.17 184.42C184.441 185.175 183.511 185.705 182.49 185.948C181.47 186.191 180.401 186.136 179.41 185.79C173.74 184.27 168.04 182.86 162.34 181.44C160.21 180.91 159.81 180.12 161.44 178.38C163.63 176.03 165.59 173.48 167.66 171.03C168.22 170.36 168.95 169.76 168.29 168.5C164.57 170.28 161.65 173.18 158.42 175.57C155.67 177.57 153.3 178.05 150.29 176.15C146.29 173.61 142.03 171.43 137.9 169.05C137.1 168.59 135.71 168.47 135.9 167.19C136.09 165.91 137.4 166.02 138.32 165.84C145.07 164.54 151.65 162.62 158.26 160.78C161.108 160.033 163.812 158.817 166.26 157.18C162.43 156.81 159.47 157.82 156.56 158.4C147.85 160.14 139.04 160.85 130.22 161.58C129.451 161.659 128.673 161.578 127.937 161.342C127.2 161.107 126.52 160.721 125.94 160.21C119.759 154.834 114.115 148.869 109.09 142.4C108.57 141.75 107.54 141.08 108.09 140.13C108.64 139.18 109.9 139.72 110.82 139.96C124.178 143.231 137.877 144.909 151.63 144.96C154.81 144.96 158.24 145.64 162.25 143.58C155.85 142.64 150.37 141.58 144.84 141.12C139.84 140.73 136.4 138.73 134.05 134.24C131.7 129.75 128.88 125.48 126.28 121.09C125.86 120.38 124.87 119.65 125.62 118.76C126.37 117.87 127.48 118.63 128.3 119.06C136.1 123.17 144.7 125.06 152.92 128.06C154.567 128.752 156.37 128.99 158.14 128.75C153.72 125.14 148.69 123.96 144.14 121.81C136.871 118.301 129.854 114.291 123.14 109.81C121.212 108.461 119.849 106.45 119.31 104.16C118.01 99.82 116.9 95.41 115.75 91.02C115.719 90.818 115.665 90.6201 115.59 90.43C111.5 96.1967 107.91 102.302 104.86 108.68C106.748 104.743 108.841 100.908 111.13 97.19C113.678 105.532 117.111 113.578 121.37 121.19C124.02 125.92 126.48 130.75 129.72 135.13C130.18 135.75 130.72 136.45 130.28 137.23C129.84 138.01 128.91 137.79 128.16 137.6C119.893 135.52 111.623 133.427 103.35 131.32C102.651 131.136 101.997 130.811 101.428 130.366C100.859 129.92 100.387 129.364 100.04 128.73C99.42 127.73 98.82 126.65 98.22 125.6C98.62 124.32 99.04 123.05 99.48 121.78C92.4877 142.042 90.8129 163.76 94.6158 184.855C98.4187 205.949 107.572 225.715 121.2 242.26C121.4 242.071 121.614 241.897 121.84 241.74C136.903 231.158 153.377 222.742 170.78 216.74C172.21 216.24 172.9 216.62 173.26 217.92C175.83 227.29 181.97 233.59 190.35 238.07C193.64 239.82 197.17 240.62 200.71 241.52C204.25 242.42 204.29 242.77 202.41 245.61C194.697 257.242 188.994 270.087 185.54 283.61C187.99 284.28 190.46 284.85 192.96 285.34C191.9 285.13 190.85 284.9 189.81 284.66C192.56 275.08 195.81 265.66 200.81 257.02C201.69 255.49 202.45 253.89 203.34 252.37C203.61 251.92 204.15 251.46 204.71 251.9C204.829 252.068 204.91 252.259 204.948 252.461C204.985 252.663 204.98 252.871 204.93 253.07C204.65 254.48 204.27 255.87 203.71 258.16C201.829 267.623 201.491 277.329 202.71 286.9C200.54 286.63 198.38 286.32 196.25 285.95C228.246 291.501 261.147 284.407 288.013 266.164C314.878 247.922 333.608 219.957 340.25 188.17C337.92 188.59 335.51 187.91 333.15 187.4ZM145.51 222.51C140.94 224.99 136.29 227.32 131.8 229.93C129.58 231.22 128.8 230.93 128.38 228.35C126.77 217.69 126.19 219.04 135.25 216.46C144.8 213.73 154.64 213.37 164.44 212.68C164.98 212.68 165.54 212.74 166.08 213.82C159.06 216.63 152 219 145.51 222.51Z" fill="#1D1D1B"/>
<path d="M141.51 262C142.34 262.64 143.17 263.27 144.01 263.88C143.14 263.23 142.31 262.6 141.51 262Z" fill="#1D1D1B"/>
<path d="M139 260C139.8 260.65 140.6 261.28 141.42 261.91C140.57 261.26 139.77 260.63 139 260Z" fill="#1D1D1B"/>
<path d="M342.9 162.8V166.05C342.89 165 342.9 163.88 342.9 162.8Z" fill="#1D1D1B"/>
<path d="M146.62 265.72C145.75 265.11 144.88 264.5 144.02 263.87C146.77 265.87 149.61 267.79 152.53 269.57C157.86 262.36 163.2 255.16 169.06 248.35C170.19 247.304 170.901 245.882 171.06 244.35C167.22 246.15 164.89 249.02 162.16 251.35C156.75 255.9 151.62 260.73 146.62 265.72Z" fill="#1D1D1B"/>
<path d="M185.56 283.73C184.27 283.38 182.99 283.02 181.72 282.64C183 283 184.27 283.38 185.56 283.73Z" fill="#1D1D1B"/>
<path d="M124.12 69.85C121.26 67.25 118.25 64.85 115.25 62.35C114.34 61.62 112.75 60.6 112.74 62.8C112.74 67.11 113.14 71.42 113.51 75.72C113.732 76.9332 114.421 78.0106 115.43 78.72C117.3 80.3 119.18 81.86 121.05 83.41C123.65 80.25 126.4 77.21 129.3 74.32C127.51 72.87 125.82 71.39 124.12 69.85Z" fill="#1D1D1B"/>
<path d="M116.07 88.7C115.38 89.15 115.45 89.86 115.61 90.55C116.09 89.88 116.61 89.22 117.06 88.55C116.896 88.4858 116.719 88.4658 116.545 88.4922C116.371 88.5185 116.207 88.5902 116.07 88.7Z" fill="#1D1D1B"/>
<path d="M142.67 55.38C134.51 47.01 126.51 38.38 119.09 29.26C118.55 28.61 118.2 27.53 117.09 27.81C115.98 28.09 116.25 29.25 116.09 30.06C115.51 32.88 115.2 35.77 114.42 38.53C112.29 46.04 113.99 52.14 120.56 56.66C120.885 56.9668 121.183 57.3014 121.45 57.66C125.55 61.8333 129.717 65.9233 133.95 69.93C138.056 66.2284 142.399 62.7979 146.95 59.66C145.51 58.24 144.08 56.83 142.67 55.38Z" fill="#1D1D1B"/>
<path d="M364.13 112.12C365.138 111.84 366.059 111.307 366.804 110.572C367.549 109.837 368.095 108.924 368.39 107.92C369.71 103.81 371.28 99.78 372.55 95.66C373.07 93.96 374.9 91.82 373.25 90.51C371.85 89.39 369.75 91.11 368.09 91.85C355.42 97.3412 342.39 101.959 329.09 105.67C331.62 110.598 333.818 115.689 335.67 120.91C345.257 118.303 354.743 115.373 364.13 112.12Z" fill="#1D1D1B"/>
<path d="M348.35 136.94C350.51 136.42 353.23 136.57 354.65 134.39C356.81 131.05 358.72 127.55 360.73 124.11C361.11 123.46 361.68 122.71 361 122C360.32 121.29 359.57 121.67 358.81 121.86C351.777 123.707 344.703 125.3 337.59 126.64C338.77 130.567 339.77 134.567 340.59 138.64C343.17 138.133 345.757 137.567 348.35 136.94Z" fill="#1D1D1B"/>
<path d="M346 146.44C346.42 145.95 346.91 145.35 346.47 144.66C346.03 143.97 345.29 144.32 344.66 144.45L341.66 144.99C341.94 146.91 342.17 148.85 342.36 150.79C343.56 149.35 344.78 147.88 346 146.44Z" fill="#1D1D1B"/>
<path d="M121.22 242.37C120.744 242.784 120.434 243.358 120.35 243.983C120.265 244.609 120.411 245.244 120.76 245.77C121.98 248.38 123.12 251.03 124.15 253.71C125.03 255.99 126.01 256.21 128.06 254.71C128.99 254.05 129.93 253.41 130.87 252.77C127.461 249.487 124.24 246.014 121.22 242.37Z" fill="#1D1D1B"/>
<path d="M145.83 278.56C144.31 280.56 144.44 282.05 146.52 283.56C148.6 285.07 150.52 286.71 152.52 288.28C155.52 290.59 156.26 290.42 157.99 287.12C159.99 283.327 162.077 279.6 164.25 275.94C160.225 274.029 156.306 271.902 152.51 269.57C150.31 272.577 148.084 275.573 145.83 278.56Z" fill="#1D1D1B"/>
<path d="M165.34 291.77C164.34 294.52 164.97 295.54 167.34 296.54C170.941 297.975 174.612 299.226 178.34 300.29C181.5 301.29 182.43 300.06 182.87 297.15C183.55 292.633 184.461 288.154 185.6 283.73C180.429 282.35 175.352 280.64 170.4 278.61C168.6 283 166.91 287.34 165.34 291.77Z" fill="#1D1D1B"/>
<path d="M132 262.15C130.3 263.8 130.25 264.96 131.61 266.61C133.1 268.246 134.439 270.013 135.61 271.89C137.18 274.74 138.49 274.1 140.31 272.19C142.403 270.01 144.513 267.853 146.64 265.72C143.113 263.274 139.712 260.65 136.45 257.86L132 262.15Z" fill="#1D1D1B"/>
<path d="M101.73 109.25C98.5201 108.05 95.3601 106.72 92.2001 105.42C91.4701 105.12 90.6901 104.61 90.0101 105.12C89.0801 105.83 89.7701 106.74 90.0101 107.54C92.2106 113.822 94.9508 119.901 98.2001 125.71C99.8971 120.239 101.972 114.893 104.41 109.71C103.492 109.799 102.566 109.64 101.73 109.25Z" fill="#1D1D1B"/>
<path d="M106.6 77.28C104.4 62.8109 104.43 48.09 106.69 33.63C106.887 32.5508 106.817 31.4397 106.486 30.3938C106.155 29.3479 105.572 28.399 104.79 27.63C97.22 19.11 89.73 10.53 82.85 1.43001C82.34 0.750012 81.85 -0.259988 80.85 0.0600124C79.85 0.380012 80.13 1.32001 80.06 2.06001C79.25 11.21 78.56 20.37 78.32 29.57C78.2512 30.4434 78.3976 31.3202 78.7462 32.1239C79.0949 32.9276 79.6352 33.6335 80.32 34.18C84.17 37.5 88 40.84 91.73 44.3C93.1 45.57 94.99 46.47 95.73 48.65C94.2111 48.6972 92.7253 48.2008 91.54 47.25C88.12 45 84.64 42.84 81.25 40.54C79.06 39.07 78.19 39.75 78.25 42.16C78.41 45.91 78.98 49.68 78.8 53.42C78.4 61.52 81.55 67.21 88.7 71.22C92.06 73.11 95.61 75.22 98.26 78.7C96.49 79.47 95.53 78.56 94.5 78.04C90.94 76.24 87.39 74.43 83.83 72.64C83.07 72.26 82.26 71.51 81.41 72.28C80.74 72.89 81.2 73.71 81.32 74.47C82.45 81.47 84.12 88.34 85.89 95.2C86.048 95.9604 86.3568 96.6813 86.7982 97.3203C87.2397 97.9592 87.8047 98.5032 88.46 98.92C91.96 101.04 95.52 103.06 99.04 105.16C100.9 106.27 102.76 107.44 104.92 108.79C106.808 104.853 108.901 101.018 111.19 97.3C109.166 90.7496 107.632 84.0578 106.6 77.28Z" fill="#1D1D1B"/>
<path d="M418.21 82.29C417.58 81.84 416.97 82.36 416.38 82.64C405.877 87.6296 395.13 92.0885 384.18 96C383.235 96.302 382.382 96.8382 381.7 97.5586C381.018 98.2789 380.53 99.1601 380.28 100.12C378.009 107.189 375.073 114.026 371.51 120.54C364.188 134.829 354.474 147.759 342.79 158.77C342.79 160.12 342.86 161.48 342.86 162.84C342.86 171.403 341.989 179.944 340.26 188.33C341.712 188.157 343.092 187.601 344.26 186.72C350.235 182.515 355.992 178.009 361.51 173.22C362.01 172.77 362.63 172.39 362.41 171.61C362.19 170.83 361.41 170.85 360.79 170.8C358.14 170.64 355.49 170.52 352.86 170.25C350.76 170.03 348.53 170.11 346.14 167.92C353.01 167.52 359.14 167.09 365.27 166.85C366.151 166.875 367.029 166.716 367.845 166.382C368.661 166.048 369.399 165.546 370.01 164.91C375.09 159.51 379.72 153.72 384.4 147.98C384.9 147.37 385.46 146.75 384.99 145.92C384.52 145.09 383.83 145.42 383.18 145.42L370.57 145.34C369.23 145.34 367.81 145.63 366.35 144.14C367.81 143.593 369.316 143.178 370.85 142.9C376.49 142.47 382.02 141.34 387.58 140.43C388.3 140.371 388.997 140.145 389.614 139.77C390.232 139.395 390.755 138.881 391.14 138.27C394.673 132.39 398.193 126.507 401.7 120.62C402.78 118.81 402.43 117.89 400.18 118.13C396.33 118.54 392.47 118.92 388.62 119.36C386.856 119.734 385.019 119.556 383.36 118.85C383.76 117.62 384.5 117.72 385.12 117.56C390.81 116.13 396.47 114.56 402.19 113.31C403.434 113.124 404.609 112.618 405.6 111.841C406.59 111.065 407.362 110.044 407.84 108.88C411.35 100.74 415.19 92.76 418.16 84.4C418.4 83.68 419.11 82.94 418.21 82.29Z" fill="#1D1D1B"/>
<path d="M166 300.72C157.956 297.53 150.541 292.939 144.1 287.16C134.922 279.29 127.315 269.756 121.68 259.06C120.1 256.01 118.68 255.53 115.88 257.44C113.592 259 111.161 260.339 108.62 261.44C105.89 262.64 105.77 264.44 106.69 266.81C108.167 270.628 109.89 274.346 111.85 277.94C112.85 279.81 114.14 280.21 115.92 279.37C118.12 278.32 120.28 277.2 122.46 276.11C123.05 275.81 123.69 275.36 124.21 276.11C124.59 276.65 124.21 277.2 123.84 277.61C122.119 279.903 120.27 282.097 118.3 284.18C116.86 285.58 116.74 286.73 117.87 288.18C119.97 290.88 122.12 293.55 124.23 296.25C125.42 297.76 126.74 297.87 128.23 296.72C129.9 295.44 131.62 294.23 133.3 292.96C133.92 292.5 134.59 291.82 135.3 292.51C136.01 293.2 135.39 293.98 135.02 294.61C133.9 296.51 132.72 298.38 131.54 300.25C131.338 300.492 131.186 300.772 131.093 301.073C130.999 301.374 130.966 301.69 130.995 302.004C131.024 302.318 131.114 302.623 131.261 302.902C131.407 303.181 131.608 303.428 131.85 303.63L132.05 303.78C134.33 305.53 136.67 307.2 138.99 308.91C139.248 309.141 139.55 309.319 139.878 309.434C140.205 309.549 140.552 309.598 140.898 309.578C141.245 309.559 141.584 309.471 141.897 309.32C142.209 309.17 142.489 308.959 142.72 308.7L142.84 308.55C144.45 306.88 146.04 305.18 147.61 303.48C148.22 302.82 148.82 301.94 149.8 302.54C150.78 303.14 149.96 303.93 149.75 304.61C149.09 306.72 148.46 308.85 147.65 310.91C146.84 312.97 147.55 314.1 149.37 314.86C152.44 316.12 155.49 317.46 158.61 318.59C163.78 320.47 163.99 320.31 165.48 315.12C165.88 313.74 166.31 312.36 166.72 310.98H166.84C167.31 309.05 167.7 307.09 168.27 305.18C169 302.91 168.51 301.67 166 300.72Z" fill="#1D1D1B"/>
<path d="M189.51 286C188.9 288.14 189.77 289.1 191.85 289.36C194.48 289.69 197.12 289.99 199.72 290.49C202.49 291.02 203.19 290.17 202.81 287.34V287C198.476 286.487 194.174 285.743 189.92 284.77C189.736 285.163 189.599 285.576 189.51 286Z" fill="#1D1D1B"/>
<path d="M104.88 108.8C104.73 109.1 104.59 109.41 104.45 109.71C104.904 109.65 105.348 109.529 105.77 109.35L104.88 108.8Z" fill="#1D1D1B"/>
<path d="M162.12 235.53C160.48 234.86 159.26 235.93 158.12 236.53C148.82 241.62 139.59 246.83 130.83 252.8C132.637 254.54 134.49 256.223 136.39 257.85C143.675 250.863 151.354 244.298 159.39 238.19C160.41 237.5 161.6 237 162.12 235.53Z" fill="#1D1D1B"/>
<path d="M171 244.35C167.16 246.15 164.83 249.02 162.1 251.35C156.71 255.92 151.58 260.75 146.58 265.74C148.51 267.08 150.48 268.37 152.49 269.59C157.82 262.38 163.16 255.18 169.02 248.37C170.15 247.317 170.854 245.887 171 244.35Z" fill="#1D1D1B"/>
<path d="M180.43 254C178.95 253.72 178.53 254.9 177.89 255.73C172.965 262.188 168.414 268.922 164.26 275.9C166.26 276.853 168.293 277.75 170.36 278.59C173.47 270.94 176.8 263.39 180.15 255.84C180.4 255.3 180.85 254.73 180.43 254Z" fill="#1D1D1B"/>
<path d="M169.42 100C167.22 97.25 164.49 95.68 162.05 93.84C152.251 86.4156 142.886 78.4359 134 69.94C132.413 71.3733 130.863 72.8467 129.35 74.36C139.43 82.75 150.35 89.92 161.62 96.7C163.8 98 166 100.14 169.42 100Z" fill="#1D1D1B"/>
<path d="M293.91 129.77V130.9C297.36 130.9 300.83 131.15 304.27 130.9C315.464 130.129 326.604 128.7 337.63 126.62C337.05 124.687 336.423 122.777 335.75 120.89C324.62 123.89 313.38 126.51 301.97 128.47C299.26 129 296.58 129.34 293.91 129.77Z" fill="#1D1D1B"/>
<path d="M294.06 145C294.475 145.567 295.026 146.022 295.662 146.322C296.297 146.622 296.998 146.759 297.7 146.72C312.39 147.1 327.08 147.43 341.63 145.02C341.33 142.9 340.98 140.79 340.57 138.71C327.924 141.388 315.111 143.212 302.22 144.17C299.6 144.34 297.06 144.89 294.06 145Z" fill="#1D1D1B"/>
<path d="M157.62 112.26C159.347 113.128 161.257 113.57 163.19 113.55C160.05 110.73 156.68 108.99 153.49 107.03C142.142 99.9215 131.303 92.0325 121.05 83.42C119.68 85.1 118.34 86.81 117.05 88.56C117.52 88.8383 117.953 89.1743 118.34 89.56C130.45 98.84 143.8 106 157.62 112.26Z" fill="#1D1D1B"/>
<path d="M212.88 121.36C213.98 121.5 219.8 117.72 220.29 116.11C220.44 114.8 219.6 113.99 217.77 114.21C215.4 114.48 212.33 117.57 212 119.93C211.9 120.67 212 121.25 212.88 121.36Z" fill="#1D1D1B"/>
</g>
<defs>
<clipPath id="clip0_156_4202">
<rect width="431.15" height="443.89" fill="white"/>
</clipPath>
</defs>
</svg>
