<svg width="24" height="24" viewBox="0 0 24 24" fill="none" xmlns="http://www.w3.org/2000/svg">
<g clip-path="url(#clip0_1_15)">
<path d="M23.5407 4.43467L16.78 0.175333C16.1773 -0.204 15.6833 0.0546663 15.6833 0.752V2H1.33333C0.979711 2 0.640573 2.14048 0.390524 2.39052C0.140476 2.64057 0 2.97971 0 3.33333L0 7.33333C0 7.68696 0.140476 8.02609 0.390524 8.27614C0.640573 8.52619 0.979711 8.66667 1.33333 8.66667H15.6833V9.93267C15.6833 10.63 16.1653 10.8747 16.7547 10.4733L23.5647 5.85267C24.1547 5.45267 24.1433 4.81467 23.5407 4.43467ZM4.202 18.1753C4.202 18.5333 3.964 18.854 3.588 18.854C3.21267 18.854 2.92 18.5793 2.37067 18.5793C1.97667 18.5793 1.62 18.79 1.62 19.1747C1.62 20.1173 4.678 19.514 4.678 21.876C4.678 23.184 3.59733 24 2.334 24C1.62867 24 0.109333 23.8347 0.109333 22.974C0.109333 22.6173 0.346667 22.3233 0.722667 22.3233C1.15267 22.3233 1.666 22.6807 2.26133 22.6807C2.866 22.6807 3.19533 22.3413 3.19533 21.8927C3.19533 20.8127 0.136667 21.4627 0.136667 19.338C0.136667 18.056 1.19 17.2593 2.408 17.2593C2.92 17.26 4.202 17.452 4.202 18.1753ZM5.01067 20.6293C5.01067 18.726 6.292 17.2593 8.16067 17.2593C10.0013 17.2593 11.3107 18.7713 11.3107 20.6293C11.3107 22.5253 10.0373 24 8.16067 24C6.302 24 5.01067 22.5253 5.01067 20.6293ZM9.882 20.6293C9.882 19.522 9.30467 18.5233 8.16 18.5233C7.01533 18.5233 6.43867 19.522 6.43867 20.6293C6.43867 21.7467 6.99733 22.7353 8.16 22.7353C9.32333 22.736 9.882 21.7467 9.882 20.6293ZM11.6253 20.6293C11.6253 18.726 12.9073 17.2593 14.7753 17.2593C16.6153 17.2593 17.9253 18.7713 17.9253 20.6293C17.9253 22.5253 16.6527 24 14.7753 24C12.916 24 11.6253 22.5253 11.6253 20.6293ZM16.496 20.6293C16.496 19.522 15.92 18.5233 14.7753 18.5233C13.63 18.5233 13.054 19.522 13.054 20.6293C13.054 21.7467 13.6127 22.7353 14.7753 22.7353C15.9373 22.736 16.496 21.7467 16.496 20.6293ZM18.4413 18.0293C18.4413 17.5707 18.7347 17.3147 19.128 17.3147C19.302 17.3147 19.586 17.452 19.7047 17.6173L22.6067 21.4907H22.6253V18.03C22.6253 17.5713 22.918 17.3153 23.3127 17.3153C23.7053 17.3153 23.9987 17.572 23.9987 18.03V23.2313C23.9987 23.69 23.7053 23.946 23.3127 23.946C23.1373 23.946 22.8627 23.8087 22.7353 23.6433L19.8327 19.816H19.8147V23.2313C19.8147 23.69 19.5213 23.946 19.128 23.946C18.7347 23.946 18.4413 23.6893 18.4413 23.2313V18.0293Z" fill="#31373D"/>
</g>
<defs>
<clipPath id="clip0_1_15">
<rect width="24" height="24" fill="white"/>
</clipPath>
</defs>
</svg>
